<svg version="1.1" xmlns="http://www.w3.org/2000/svg" width="24" height="22" viewBox="0 0 24 22" xmlns:xlink="http://www.w3.org/1999/xlink" transform="matrix(-1,0,0,1,0,0)"><path d="m1.516 4.801 0.213 -0.001h1.182l1.018 0.001H6.71l0.567 0.001h0.207c0.565 -0.002 1.131 0.02 1.668 0.211l0.097 0.034c0.708 0.254 1.287 0.676 1.836 1.184l0.123 -0.107 0.178 -0.15 0.096 -0.082c1.003 -0.829 2.047 -1.084 3.316 -1.085l0.211 -0.001 0.567 -0.001 0.355 -0.001 1.113 -0.002 1.281 -0.002 0.993 -0.002 0.592 -0.001 0.556 -0.001 0.203 -0.001c0.475 -0.003 0.898 -0.004 1.268 0.325 0.112 0.137 0.104 0.269 0.101 0.439l0.002 0.108q0.002 0.181 -0.001 0.36l0.002 0.258q0.002 0.351 -0.001 0.702v0.736l-0.002 1.238 -0.001 1.427q0.002 0.688 0 1.376v0.584q0.001 0.345 -0.002 0.689v0.251c0.003 0.527 -0.055 0.928 -0.292 1.402l-0.047 0.098c-0.181 0.361 -0.42 0.673 -0.684 0.976l-0.065 0.082c-0.533 0.671 -1.424 1.161 -2.255 1.337a5.5 5.5 0 0 1 -0.523 0.018l-0.152 0.002 -0.493 0.001 -0.258 0.001q-0.405 0.002 -0.811 0.001 -0.416 0 -0.831 0.002l-0.718 0.002 -0.427 0.002c-0.808 0.005 -1.427 -0.063 -2.147 -0.456l-0.043 0.43H9.882l-0.002 -0.753q-0.002 -1.233 -0.006 -2.466l-0.004 -1.494 -0.004 -1.303 -0.002 -0.69 -0.002 -0.65v-0.237c0.002 -0.68 -0.113 -1.199 -0.59 -1.713 -0.511 -0.481 -1.094 -0.643 -1.783 -0.641l-0.17 -0.002 -0.453 -0.002 -0.476 -0.002q-0.449 -0.003 -0.899 -0.003l-1.025 -0.005q-1.053 -0.005 -2.105 -0.007l0.013 2.23 0.005 1.036 0.005 0.903 0.003 0.478 0.004 0.534v0.159c0.005 0.609 0.131 1.167 0.562 1.624 0.489 0.424 1.008 0.647 1.655 0.651l0.121 0.002 0.394 0.004 0.273 0.003 0.72 0.006 0.863 0.008 1.311 0.012v2.32c-1.171 0.01 -1.171 0.01 -1.673 0.013l-1.025 0.006q-0.413 0.005 -0.827 0.005l-0.314 0.003c-1.292 0.016 -2.262 -0.407 -3.198 -1.29 -0.779 -0.761 -1.269 -1.798 -1.283 -2.89l0.002 -0.32 -0.001 -0.235q-0.001 -0.314 0.001 -0.629v-0.662l0.002 -1.109q0.002 -0.64 0.001 -1.281V7.041q-0.001 -0.309 0.002 -0.617v-0.225c-0.003 -0.819 -0.003 -0.819 0.267 -1.12 0.339 -0.337 0.828 -0.277 1.272 -0.275m11.156 3.291c-0.416 0.552 -0.411 1.125 -0.408 1.786l-0.001 0.274 0.001 0.573q0.002 0.365 -0.001 0.73v0.566l-0.001 0.269c-0.003 0.779 0.075 1.348 0.628 1.941q0.673 0.647 1.594 0.647l0.115 0.001 0.372 0.001 0.261 0.001 0.545 0.001q0.347 0 0.696 0.003 0.269 0.002 0.538 0.001l0.257 0.002c0.752 0.005 1.296 -0.093 1.861 -0.628 0.489 -0.518 0.654 -1.084 0.648 -1.783v-0.173l-0.002 -0.466 -0.001 -0.488 -0.003 -0.922 -0.003 -1.05q-0.002 -1.081 -0.006 -2.161 -1.088 -0.005 -2.177 -0.006l-1.011 -0.003 -0.882 -0.002 -0.467 -0.002 -0.522 -0.001 -0.154 -0.002c-0.768 0.003 -1.379 0.308 -1.879 0.892" fill="#F28B00"></path></svg>
